<svg width="24" height="24" viewBox="0 0 24 24" fill="none" xmlns="http://www.w3.org/2000/svg">
<path d="M12 3V2" stroke="#365C48" stroke-width="2" stroke-linecap="round" stroke-linejoin="round"/>
<path d="M15.4 17.3997L18.6 14.5997C18.7904 14.4159 19.0152 14.2713 19.2615 14.1744C19.5077 14.0774 19.7707 14.0298 20.0354 14.0345C20.3 14.0391 20.5611 14.0959 20.8039 14.2014C21.0466 14.307 21.2662 14.4593 21.45 14.6497C21.6339 14.8402 21.7784 15.0649 21.8754 15.3112C21.9724 15.5575 22.0199 15.8205 22.0153 16.0851C22.0106 16.3497 21.9539 16.6109 21.8483 16.8536C21.7428 17.0963 21.5904 17.3159 21.4 17.4997L17.8 20.7997C17.1 21.5997 16.1 21.9997 15 21.9997H11C9.9 21.9997 8.9 21.5997 8.2 20.7997L6.898 19.3357C6.80426 19.2302 6.68923 19.1457 6.56048 19.0878C6.43173 19.0298 6.29218 18.9998 6.151 18.9997H5" stroke="#365C48" stroke-width="2" stroke-linecap="round" stroke-linejoin="round"/>
<path d="M2 14H14C14.5304 14 15.0391 14.2107 15.4142 14.5858C15.7893 14.9609 16 15.4696 16 16C16 16.5304 15.7893 17.0391 15.4142 17.4142C15.0391 17.7893 14.5304 18 14 18H12" stroke="#365C48" stroke-width="2" stroke-linecap="round" stroke-linejoin="round"/>
<path d="M4 10H20" stroke="#365C48" stroke-width="2" stroke-linecap="round" stroke-linejoin="round"/>
<path d="M5 10C5 8.14348 5.7375 6.36301 7.05025 5.05025C8.36301 3.7375 10.1435 3 12 3C13.8565 3 15.637 3.7375 16.9497 5.05025C18.2625 6.36301 19 8.14348 19 10" stroke="#365C48" stroke-width="2" stroke-linecap="round" stroke-linejoin="round"/>
<path d="M5 14V20C5 20.2652 4.89464 20.5196 4.70711 20.7071C4.51957 20.8946 4.26522 21 4 21H2" stroke="#365C48" stroke-width="2" stroke-linecap="round" stroke-linejoin="round"/>
</svg>
