<svg width="19" height="24" viewBox="0 0 19 24" fill="none" xmlns="http://www.w3.org/2000/svg">
<path fill-rule="evenodd" clip-rule="evenodd" d="M6.89633 1.99244C8.19958 0.709098 9.95727 -0.00706378 11.7863 5.25314e-05C13.6153 0.00716884 15.3674 0.736987 16.6606 2.03043C17.9538 3.32387 18.6833 5.07607 18.6901 6.9051C18.6969 8.73414 17.9805 10.4917 16.6969 11.7947L5.45119 23.0404C5.15983 23.345 4.81057 23.5882 4.42392 23.756C4.03726 23.9237 3.621 24.0125 3.19956 24.0172C2.77812 24.0218 2.35999 23.9422 1.96972 23.7831C1.57945 23.624 1.2249 23.3885 0.926882 23.0905C0.62886 22.7924 0.393372 22.4379 0.234239 22.0476C0.0751055 21.6574 -0.00446634 21.2392 0.000193437 20.8178C0.00485321 20.3963 0.0936508 19.9801 0.261374 19.5934C0.429098 19.2068 0.672367 18.8575 0.976906 18.5662L12.2226 7.32044C12.3294 7.20617 12.3876 7.0549 12.3851 6.89853C12.3825 6.74216 12.3193 6.59289 12.2088 6.48219C12.0984 6.37149 11.9492 6.30801 11.7929 6.30512C11.6365 6.30224 11.4851 6.36018 11.3706 6.46672L11.074 6.7633C10.7827 7.06783 10.4334 7.3111 10.0468 7.47883C9.66012 7.64655 9.24386 7.73535 8.82242 7.74001C8.40098 7.74467 7.98285 7.6651 7.59258 7.50596C7.20231 7.34683 6.84776 7.11134 6.54974 6.81332C6.25172 6.5153 6.01623 6.16075 5.8571 5.77048C5.69796 5.38021 5.61839 4.96208 5.62305 4.54064C5.62771 4.1192 5.71651 3.70294 5.88423 3.31628C6.05195 2.92963 6.29522 2.58037 6.59976 2.28901L6.89633 1.99244ZM15.1815 3.50787C14.7369 3.06323 14.209 2.71053 13.6281 2.4699C13.0472 2.22926 12.4246 2.10541 11.7958 2.10541C11.167 2.10541 10.5443 2.22926 9.96342 2.4699C9.38249 2.71053 8.85466 3.06323 8.41005 3.50787L8.11519 3.80444C7.93791 3.99862 7.84232 4.25367 7.8483 4.51654C7.85427 4.77941 7.96136 5.02985 8.14729 5.21577C8.33321 5.4017 8.58365 5.50879 8.84652 5.51476C9.10939 5.52074 9.36444 5.42515 9.55862 5.24787L9.85519 4.9513C10.3739 4.45532 11.0662 4.18212 11.7839 4.19017C12.5015 4.19823 13.1875 4.48689 13.695 4.99437C14.2025 5.50185 14.4911 6.18784 14.4992 6.90548C14.5072 7.62313 14.234 8.31541 13.738 8.83415L2.49233 20.0799C2.31021 20.2734 2.21064 20.5302 2.21474 20.7959C2.21884 21.0616 2.32629 21.3152 2.5143 21.503C2.70231 21.6908 2.95608 21.798 3.22178 21.8017C3.48748 21.8055 3.7442 21.7057 3.93748 21.5233L15.1832 10.2776C16.0806 9.37972 16.5848 8.1622 16.5848 6.89272C16.5848 5.62325 16.0806 4.40573 15.1832 3.50787" fill="#365C48"/>
</svg>
