<svg width="24" height="24" viewBox="0 0 24 24" fill="none" xmlns="http://www.w3.org/2000/svg">
<path d="M15.47 3.11C15 2.85 14.37 3.05 14.11 3.54C14.04 3.68 14 3.84 14 4V6.59L13.29 5.88C13.1978 5.78828 13.1247 5.67918 13.0749 5.55903C13.0251 5.43888 12.9997 5.31005 13 5.18V1H11V5.17C11 5.44 10.9 5.69 10.71 5.88L10 6.59V4C10 3.44 9.54 3 9 3C8.83 3 8.67 3.04 8.53 3.11C4.72 5 2 9.97 2 15.77C2 17.67 2.33 19.55 3 21.32C3.04819 21.4587 3.12615 21.5853 3.22841 21.6907C3.33066 21.7961 3.45474 21.8779 3.59194 21.9303C3.72914 21.9827 3.87615 22.0044 4.02264 21.994C4.16914 21.9836 4.31159 21.9413 4.44 21.87L9.5 19.07C9.81 18.9 10 18.56 10 18.19V9.41L11.3 8.12C11.3925 8.0273 11.5024 7.95375 11.6234 7.90357C11.7443 7.85339 11.874 7.82756 12.005 7.82756C12.136 7.82756 12.2656 7.85339 12.3866 7.90357C12.5076 7.95375 12.6175 8.0273 12.71 8.12L14 9.42V18.2C14 18.56 14.21 18.9 14.5 19.08L19.58 21.88C19.6967 21.9426 19.8246 21.9814 19.9564 21.9941C20.0882 22.0069 20.2213 21.9933 20.3478 21.9543C20.4743 21.9152 20.5918 21.8514 20.6935 21.7665C20.7951 21.6817 20.8789 21.5775 20.94 21.46C20.96 21.42 21 21.37 21 21.32C21.67 19.55 22 17.67 22 15.77C22 9.97 19.29 5 15.47 3.11Z" fill="#365C48"/>
</svg>
