<svg width="24" height="24" viewBox="0 0 24 24" fill="none" xmlns="http://www.w3.org/2000/svg">
<path d="M3.99997 16V13.62C3.99997 11.5 2.96997 10.5 2.99997 8C3.02997 5.28 4.48997 2 7.49997 2C9.36997 2 9.99997 3.8 9.99997 5.5C9.99997 8.61 7.99997 11.16 7.99997 14.18V16C7.99997 16.5304 7.78926 17.0391 7.41419 17.4142C7.03911 17.7893 6.5304 18 5.99997 18C5.46954 18 4.96083 17.7893 4.58576 17.4142C4.21069 17.0391 3.99997 16.5304 3.99997 16Z" stroke="#365C48" stroke-width="2" stroke-linecap="round" stroke-linejoin="round"/>
<path d="M20 20V17.62C20 15.5 21.03 14.5 21 12C20.97 9.28 19.51 6 16.5 6C14.63 6 14 7.8 14 9.5C14 12.61 16 15.16 16 18.18V20C16 20.5304 16.2107 21.0391 16.5858 21.4142C16.9609 21.7893 17.4696 22 18 22C18.5304 22 19.0391 21.7893 19.4142 21.4142C19.7893 21.0391 20 20.5304 20 20Z" stroke="#365C48" stroke-width="2" stroke-linecap="round" stroke-linejoin="round"/>
<path d="M16 17H20" stroke="#365C48" stroke-width="2" stroke-linecap="round" stroke-linejoin="round"/>
<path d="M4 13H8" stroke="#365C48" stroke-width="2" stroke-linecap="round" stroke-linejoin="round"/>
</svg>
