<svg width="24" height="24" viewBox="0 0 24 24" fill="none" xmlns="http://www.w3.org/2000/svg">
<path d="M19.414 14.414C21 12.828 22 11.5 22 9.49999C22 8.38719 21.6624 7.30057 21.0319 6.38366C20.4013 5.46674 19.5075 4.76265 18.4684 4.36439C17.4293 3.96613 16.2938 3.89244 15.212 4.15304C14.1301 4.41364 13.1528 4.99627 12.409 5.82399M19.414 14.414C19.2168 14.6113 18.9826 14.7677 18.7249 14.8745C18.4672 14.9813 18.191 15.0362 17.912 15.0362C17.633 15.0362 17.3568 14.9813 17.0991 14.8745C16.8414 14.7677 16.6072 14.6113 16.41 14.414C16.6235 14.6071 16.7956 14.8416 16.9157 15.1032C17.0358 15.3649 17.1015 15.6482 17.1087 15.9361C17.116 16.2239 17.0646 16.5102 16.9578 16.7775C16.851 17.0449 16.6909 17.2877 16.4873 17.4913C16.2837 17.6949 16.0409 17.855 15.7735 17.9618C15.5062 18.0686 15.2199 18.12 14.9321 18.1127C14.6443 18.1055 14.3609 18.0398 14.0993 17.9197C13.8376 17.7996 13.6031 17.6275 13.41 17.414C13.6074 17.6106 13.7641 17.8442 13.8712 18.1015C13.9782 18.3587 14.0335 18.6345 14.0339 18.9132C14.0342 19.1918 13.9797 19.4678 13.8733 19.7253C13.767 19.9828 13.6109 20.2168 13.414 20.414C13.224 20.6041 12.9976 20.7539 12.7484 20.8545C12.4991 20.9552 12.2322 21.0045 11.9635 20.9997C11.6947 20.9948 11.4297 20.9358 11.1843 20.8263C10.9389 20.7167 10.718 20.5588 10.535 20.362L5 15C3.5 13.5 2 11.8 2 9.49999C2.00022 8.38728 2.33794 7.3008 2.96856 6.38404C3.59917 5.46727 4.49303 4.76335 5.53208 4.36521C6.57112 3.96708 7.7065 3.89346 8.78826 4.15409C9.87002 4.41472 10.8473 4.99733 11.591 5.82499C11.7022 5.92833 11.8484 5.98568 12.0002 5.98549C12.152 5.98531 12.2981 5.9276 12.409 5.82399M19.414 14.414C19.7889 14.0389 19.9996 13.5303 19.9996 13C19.9996 12.4697 19.7889 11.961 19.414 11.586L17.533 9.70399C17.3092 9.48009 17.0435 9.30248 16.751 9.1813C16.4585 9.06012 16.1451 8.99775 15.8285 8.99775C15.5119 8.99775 15.1985 9.06012 14.906 9.1813C14.6135 9.30248 14.3478 9.48009 14.124 9.70399L12.414 11.414C12.0389 11.7889 11.5303 11.9996 11 11.9996C10.4697 11.9996 9.96106 11.7889 9.586 11.414C9.21106 11.0389 9.00043 10.5303 9.00043 9.99999C9.00043 9.46966 9.21106 8.96105 9.586 8.58599L12.409 5.82399" stroke="#365C48" stroke-width="2" stroke-linecap="round" stroke-linejoin="round"/>
</svg>
