<svg width="24" height="24" viewBox="0 0 24 24" fill="none" xmlns="http://www.w3.org/2000/svg">
<path d="M16 5C16.5523 5 17 4.55228 17 4C17 3.44772 16.5523 3 16 3C15.4477 3 15 3.44772 15 4C15 4.55228 15.4477 5 16 5Z" stroke="#365C48" stroke-width="2" stroke-linecap="round" stroke-linejoin="round"/>
<path d="M18 19L19 12L13 13" stroke="#365C48" stroke-width="2" stroke-linecap="round" stroke-linejoin="round"/>
<path d="M5 8L8 5L13.5 8L11.14 11.5" stroke="#365C48" stroke-width="2" stroke-linecap="round" stroke-linejoin="round"/>
<path d="M4.24002 14.5C3.95785 15.4231 3.9489 16.4081 4.21423 17.3361C4.47956 18.2641 5.00784 19.0955 5.73529 19.73C6.46274 20.3644 7.35827 20.7746 8.31378 20.9113C9.26928 21.0479 10.2439 20.9051 11.12 20.5" stroke="#365C48" stroke-width="2" stroke-linecap="round" stroke-linejoin="round"/>
<path d="M13.76 17.5C14.0422 16.5769 14.0511 15.5919 13.7858 14.6639C13.5205 13.7359 12.9922 12.9045 12.2647 12.27C11.5373 11.6356 10.6417 11.2254 9.68624 11.0887C8.73074 10.9521 7.75611 11.0949 6.88 11.5" stroke="#365C48" stroke-width="2" stroke-linecap="round" stroke-linejoin="round"/>
</svg>
